# xmcd CD database file
#
# Track frame offsets:
#	150
#	13450
#	30650
#	62867
#	82859
#	90423
#	112100
#	124700
#	131103
#	148548
#	189066
#	222957
#	242488
#	266329
#	341837
#
# Disc length: 4767 seconds
#
# Revision: 0
# Processed by: cddbd v1.5.2PL0 Copyright (c) Steve Scherf et al.
# Submitted via: CDex 1.70beta3
#
DISCID=d2129d0f
DTITLE=Bob Thiele Emergency - Head Start
DYEAR=1969
DGENRE=Jazz
TTITLE0=Head Start
TTITLE1=Freaky Zeke
TTITLE2=Beatle Ballads: Blackbird - Julia - I Will
TTITLE3=Lanoola Goes Limp
TTITLE4=The Jazz Story Part 1 - Pickin' Taters Blues
TTITLE5=The Jazz Story Part 2 - Oh Didn't Ramble - High Society
TTITLE6=The Jazz Story Part 3 - Jungle Sound
TTITLE7=The Jazz Story Part 4 - Swing Era
TTITLE8=The Jazz Story Part 5 - Be Bop
TTITLE9=The Jazz Story Part 6 - In The Vineyard - Avant Garde
TTITLE10=Dedication To John Coltrane A - Lament For John Coltrane
TTITLE11=Dedication To John Coltrane B - A Love Supreme
TTITLE12=Dedication To John Coltrane C - Holiday For A Graveyard
TTITLE13=A Few Thoughts For The Day (Biafra, King, John And Robert, The American Indian)
TTITLE14=The Flying Dutchman
EXTD=YEAR: 1969
EXTT0=
EXTT1=
EXTT2=
EXTT3=
EXTT4=
EXTT5=
EXTT6=
EXTT7=
EXTT8=
EXTT9=
EXTT10=
EXTT11=
EXTT12=
EXTT13=
EXTT14=
PLAYORDER=
